<?xml version="1.0" encoding="UTF-8"?>
<svg width="84px" height="38px" viewBox="0 0 84 38" version="1.1" xmlns="http://www.w3.org/2000/svg" xmlns:xlink="http://www.w3.org/1999/xlink">
    <!-- Generator: Sketch 58 (84663) - https://sketch.com -->
    <title>aw-white</title>
    <desc>Created with Sketch.</desc>
    <g id="Page-1" stroke="none" stroke-width="1" fill="none" fill-rule="evenodd">
        <g id="Artboard" transform="translate(-19.000000, -26.000000)" fill="#2D2D2D" fill-rule="nonzero">
            <g id="aw-white" transform="translate(17.000000, 24.000000)">
                <g id="Group" transform="translate(42.000000, 21.000000) rotate(180.000000) translate(-42.000000, -21.000000) translate(24.000000, 0.000000)">
                    <rect id="Rectangle-Copy-2" transform="translate(12.887962, 20.867161) rotate(20.000000) translate(-12.887962, -20.867161) " x="6.88796229" y="1.36716058" width="12" height="39" rx="6"></rect>
                    <rect id="Rectangle-Copy-3" transform="translate(27.460908, 22.409234) rotate(-20.000000) translate(-27.460908, -22.409234) " x="25.9609083" y="3.90923356" width="3" height="37" rx="1.5"></rect>
                </g>
                <g id="Group-Copy-2">
                    <rect id="Rectangle-Copy-2" transform="translate(12.887962, 20.867161) rotate(20.000000) translate(-12.887962, -20.867161) " x="6.88796229" y="1.36716058" width="12" height="39" rx="6"></rect>
                    <rect id="Rectangle-Copy-3" transform="translate(27.460908, 22.409234) rotate(-20.000000) translate(-27.460908, -22.409234) " x="25.9609083" y="3.90923356" width="3" height="37" rx="1.5"></rect>
                </g>
                <g id="Group-Copy" transform="translate(70.500000, 21.000000) rotate(180.000000) translate(-70.500000, -21.000000) translate(53.000000, 0.000000)">
                    <rect id="Rectangle-Copy-2" transform="translate(12.887962, 20.867161) rotate(20.000000) translate(-12.887962, -20.867161) " x="6.88796229" y="1.36716058" width="12" height="39" rx="6"></rect>
                    <rect id="Rectangle-Copy-3" transform="translate(26.907740, 20.867160) rotate(-20.000000) translate(-26.907740, -20.867160) " x="25.40774" y="3.36716049" width="3" height="35" rx="1.5"></rect>
                </g>
                <rect id="Rectangle" x="13" y="26" width="16" height="3"></rect>
            </g>
        </g>
    </g>
</svg>