<?xml version="1.0" encoding="utf-8"?>
<!-- Generator: Adobe Illustrator 20.0.0, SVG Export Plug-In . SVG Version: 6.00 Build 0)  -->
<svg version="1.1" xmlns="http://www.w3.org/2000/svg" xmlns:xlink="http://www.w3.org/1999/xlink" x="0px" y="0px"
	 viewBox="0 0 103.1 32.6" style="enable-background:new 0 0 103.1 32.6;" xml:space="preserve">
<style type="text/css">
	.st0{display:none;}
	.st1{fill:#FFFFFF;}
	.st2{fill:none;stroke:#323232;stroke-width:1.5;stroke-miterlimit:10;}
	.st3{fill:#0098DB;}
	.st4{fill:#C8C8C8;}
	.st5{fill:#969696;}
	.st6{fill:#323232;}
	.st7{fill:#FFFFFF;stroke:#FFFFFF;stroke-width:0.5;stroke-linejoin:round;stroke-miterlimit:10;}
</style>
<g id="Layer_1" class="st0">
	
		<image style="display:inline;overflow:visible;opacity:0.4;" width="2292" height="683" xlink:href="78D86CEEE56D0CBC.jpg"  transform="matrix(4.231793e-02 0 0 4.231793e-02 7.0978 2.9214)">
	</image>
</g>
<g id="Layer_3">
	<rect x="60.9" y="12.8" class="st1" width="22.7" height="14"/>
	<rect x="24.3" y="5" class="st1" width="33" height="21.5"/>
	<rect x="8.3" y="12.9" class="st1" width="13" height="18"/>
</g>
<g id="Layer_2">
	<path class="st2" d="M20.4,30.9H8.9C8.4,30.9,8,30.5,8,30V13.3c0-0.5,0.4-0.9,0.9-0.9h11.5c0.5,0,0.9,0.4,0.9,0.9V30
		C21.4,30.5,20.9,30.9,20.4,30.9z"/>
	<rect x="9.6" y="14.2" class="st3" width="4.8" height="2.1"/>
	<rect x="15" y="14.2" class="st4" width="4.8" height="2.1"/>
	<rect x="9.6" y="22" class="st4" width="4.8" height="3.3"/>
	<rect x="9.6" y="26" class="st4" width="4.8" height="0.6"/>
	<rect x="9.6" y="27.3" class="st4" width="4.8" height="0.6"/>
	<rect x="9.6" y="28.4" class="st4" width="4.8" height="0.6"/>
	<rect x="14.9" y="26" class="st4" width="4.4" height="0.6"/>
	<rect x="14.9" y="27.3" class="st4" width="3.8" height="0.6"/>
	<rect x="15" y="28.4" class="st4" width="4.8" height="0.6"/>
	<rect x="15" y="22" class="st4" width="4.8" height="3.3"/>
	<rect x="9.6" y="17" class="st5" width="10.2" height="4.4"/>
	<path class="st2" d="M56.4,26.7H25.2c-0.5,0-0.9-0.4-0.9-0.9V5.9c0-0.5,0.4-0.9,0.9-0.9h31.2c0.5,0,0.9,0.4,0.9,0.9v19.9
		C57.3,26.3,56.9,26.7,56.4,26.7z"/>
	<path class="st6" d="M45.4,31.7h-9.4c-0.9,0-1.6-0.7-1.6-1.6v-0.3c0-0.9,0.7-1.6,1.6-1.6h9.4c0.9,0,1.6,0.7,1.6,1.6V30
		C47.1,30.9,46.4,31.7,45.4,31.7z"/>
	<path class="st6" d="M84.8,31.8h-25c-0.8,0-1.5-0.7-1.5-1.5v0c0-0.8,0.7-1.5,1.5-1.5h25c0.8,0,1.5,0.7,1.5,1.5v0
		C86.2,31.1,85.6,31.8,84.8,31.8z"/>
	<rect x="30.1" y="7" class="st3" width="21.8" height="9.9"/>
	<rect x="30.1" y="20.5" class="st4" width="10.3" height="0.6"/>
	<rect x="30.1" y="21.8" class="st5" width="10.3" height="0.6"/>
	<rect x="30.1" y="22.8" class="st5" width="10.3" height="0.6"/>
	<rect x="30.1" y="24" class="st5" width="5.9" height="0.6"/>
	<rect x="37.4" y="24" class="st5" width="4.3" height="0.6"/>
	<rect x="44.8" y="24" class="st5" width="5.3" height="0.6"/>
	<rect x="41.4" y="20.5" class="st4" width="9.3" height="0.6"/>
	<rect x="41.4" y="21.8" class="st5" width="8.1" height="0.6"/>
	<rect x="41.4" y="22.8" class="st5" width="10.3" height="0.6"/>
	<rect x="30.1" y="17.7" class="st4" width="21.9" height="2.2"/>
	<polygon class="st7" points="39.8,9.6 43,11.6 39.8,13.6 	"/>
	<path class="st2" d="M83,27H61.5c-0.5,0-0.9-0.4-0.9-0.9V13.2c0-0.5,0.4-0.9,0.9-0.9H83c0.5,0,0.9,0.4,0.9,0.9v12.9
		C83.9,26.6,83.5,27,83,27z"/>
	<rect x="62.7" y="13.9" class="st3" width="11" height="2.4"/>
	<rect x="74.5" y="13.9" class="st4" width="7" height="2.4"/>
	<rect x="62.7" y="16.8" class="st5" width="18.7" height="4.2"/>
	<rect x="62.9" y="21.8" class="st4" width="5.8" height="3.7"/>
	<rect x="69.2" y="21.8" class="st4" width="5.8" height="3.7"/>
	<rect x="75.6" y="21.8" class="st4" width="5.8" height="3.7"/>
	<path class="st6" d="M95.5,31.8h-7c-0.8,0-1.5-0.7-1.5-1.5V17.5c0-0.8,0.7-1.5,1.5-1.5h7c0.8,0,1.5,0.7,1.5,1.5v12.8
		C97,31.1,96.3,31.8,95.5,31.8z"/>
	<rect x="88.2" y="17.4" class="st1" width="7.6" height="10.1"/>
	<circle class="st1" cx="92" cy="29.7" r="1"/>
	<rect x="89.2" y="18.2" class="st3" width="5.7" height="2.1"/>
	<rect x="89.2" y="21.1" class="st5" width="5.7" height="2.1"/>
	<rect x="89.2" y="24" class="st4" width="5.7" height="2.1"/>
</g>
</svg>
