<svg width="263" height="30" viewBox="0 0 263 30" fill="none" xmlns="http://www.w3.org/2000/svg">
<path d="M9.92766 11.7668L1.89223 19.8379C1.45921 20.2739 0.756112 20.2739 0.323091 19.8379C-0.107697 19.4042 -0.107697 18.7044 0.323091 18.2706L8.35629 10.1995C8.78931 9.76357 9.49241 9.76357 9.92543 10.1995C10.3562 10.6333 10.3562 11.3331 9.92543 11.7668H9.92766Z" fill="#020202"/>
<path d="M19.8201 21.7048L11.8896 29.6731C11.4566 30.109 10.7535 30.109 10.3205 29.6731C9.88968 29.2393 9.88968 28.5395 10.3205 28.1058L18.251 20.1375C18.684 19.7016 19.3871 19.7016 19.8201 20.1375C20.2509 20.5713 20.2509 21.2711 19.8201 21.7048Z" fill="#020202"/>
<path d="M13.2959 18.3422L5.43453 26.2412C5.00151 26.6772 4.29841 26.6772 3.86539 26.2412C3.4346 25.8075 3.4346 25.1077 3.86539 24.6739L11.7267 16.775C12.1597 16.339 12.8628 16.339 13.2959 16.775C13.7266 17.2087 13.7266 17.9085 13.2959 18.3422Z" fill="#020202"/>
<path fill-rule="evenodd" clip-rule="evenodd" d="M21.098 14.9668C24.6665 14.9668 27.5594 12.0739 27.5594 8.50534C27.5594 4.9368 24.6665 2.04392 21.098 2.04392C17.5294 2.04392 14.6366 4.9368 14.6366 8.50534C14.6366 12.0739 17.5294 14.9668 21.098 14.9668ZM21.098 17.0107C25.7954 17.0107 29.6033 13.2027 29.6033 8.50534C29.6033 3.80797 25.7954 0 21.098 0C16.4006 0 12.5927 3.80797 12.5927 8.50534C12.5927 13.2027 16.4006 17.0107 21.098 17.0107Z" fill="#020202"/>
<path fill-rule="evenodd" clip-rule="evenodd" d="M19.9771 4.1538C19.9771 3.57118 20.4494 3.09888 21.032 3.09888C22.0631 3.09888 23.4031 3.50216 24.4998 4.39459C25.6347 5.31811 26.504 6.7647 26.504 8.76907C26.504 9.35169 26.0316 9.824 25.449 9.824C24.8664 9.824 24.3941 9.35169 24.3941 8.76907C24.3941 7.44383 23.8461 6.58279 23.1681 6.03108C22.4519 5.44828 21.5834 5.20873 21.032 5.20873C20.4494 5.20873 19.9771 4.73642 19.9771 4.1538Z" fill="#020202"/>
<path d="M54.9738 12.0552H50.8009C50.7243 11.5216 50.5712 11.0451 50.3415 10.6258C50.1118 10.2064 49.8055 9.84431 49.4419 9.55842C49.0782 9.25346 48.657 9.02474 48.1785 8.87226C47.7 8.71979 47.1831 8.64355 46.628 8.64355C45.6135 8.64355 44.733 8.89133 43.9865 9.38688C43.2399 9.88243 42.6657 10.6067 42.2446 11.5406C41.8234 12.4936 41.632 13.6372 41.632 14.9714C41.632 16.3056 41.8426 17.5254 42.2637 18.4593C42.6848 19.3932 43.2591 20.1175 44.0056 20.594C44.7521 21.0705 45.6135 21.3183 46.6089 21.3183C47.164 21.3183 47.6808 21.242 48.1402 21.1086C48.6188 20.9561 49.0399 20.7465 49.4036 20.4606C49.7673 20.1747 50.0735 19.8316 50.3224 19.4314C50.5712 19.0311 50.7435 18.5737 50.8392 18.04H55.0121C54.8972 18.9549 54.6293 19.8126 54.2081 20.6321C53.787 21.4517 53.2128 22.195 52.4854 22.843C51.758 23.4911 50.9158 24.0057 49.9204 24.3869C48.925 24.7681 47.8148 24.9587 46.5515 24.9587C44.8096 24.9587 43.2591 24.5584 41.9 23.777C40.5409 22.9955 39.4499 21.8519 38.6651 20.3843C37.8802 18.8977 37.4783 17.1061 37.4783 14.9904C37.4783 12.8748 37.8802 11.0832 38.6842 9.59653C39.4882 8.10988 40.5601 6.98535 41.9383 6.2039C43.3165 5.42245 44.8478 5.04126 46.5706 5.04126C47.7 5.04126 48.7527 5.19374 49.7098 5.51775C50.6669 5.84177 51.5283 6.2992 52.294 6.89005C53.0405 7.49996 53.653 8.22423 54.1316 9.10098C54.6101 9.97773 54.8972 10.9688 55.0312 12.0934L54.9738 12.0552Z" fill="#231F20"/>
<path d="M66.2866 24.6728H61.8649L68.6028 5.27002H73.905L80.6238 24.6728H76.202L71.3209 9.69188H71.1678L66.2675 24.6728H66.2866ZM66.0186 17.0489H76.4509V20.251H66.0186V17.0489Z" fill="#231F20"/>
<path d="M88.3379 24.6728V5.27002H96.0329C97.5068 5.27002 98.7701 5.53686 99.8038 6.05147C100.857 6.56608 101.641 7.30941 102.196 8.2624C102.752 9.21538 103.02 10.3208 103.02 11.6169C103.02 12.913 102.732 14.0184 102.177 14.9333C101.622 15.8672 100.818 16.5724 99.7464 17.068C98.6936 17.5635 97.4111 17.8113 95.918 17.8113H90.7689V14.514H95.2481C96.0329 14.514 96.6837 14.3996 97.2005 14.19C97.7173 13.9803 98.1002 13.6563 98.3682 13.2179C98.6361 12.7796 98.751 12.2459 98.751 11.6169C98.751 10.9879 98.617 10.4352 98.3682 9.97777C98.1193 9.52034 97.7173 9.19632 97.2005 8.96761C96.6837 8.73889 96.0137 8.62453 95.2289 8.62453H92.4534V24.6728H88.3379ZM98.8658 15.8482L103.709 24.6728H99.153L94.4058 15.8482H98.8467H98.8658Z" fill="#231F20"/>
<path d="M111.289 24.6728V5.27002H124.42V8.64359H115.404V13.2751H123.731V16.6487H115.404V21.2802H124.458V24.6538H111.289V24.6728Z" fill="#231F20"/>
<path d="M133.053 24.6728V5.27002H146.184V8.64359H137.168V13.2751H145.495V16.6487H137.168V21.2802H146.222V24.6538H133.053V24.6728Z" fill="#231F20"/>
<path d="M154.836 24.6728V5.27002H162.531C164.005 5.27002 165.268 5.53686 166.302 6.05147C167.336 6.56608 168.14 7.30941 168.695 8.2624C169.25 9.21538 169.518 10.3208 169.518 11.6169C169.518 12.913 169.231 14.0184 168.676 14.9333C168.121 15.8482 167.317 16.5724 166.245 17.068C165.192 17.5635 163.909 17.8113 162.416 17.8113H157.267V14.514H161.746C162.531 14.514 163.182 14.3996 163.699 14.19C164.216 13.9803 164.599 13.6563 164.867 13.2179C165.115 12.7796 165.249 12.2459 165.249 11.6169C165.249 10.9879 165.115 10.4352 164.867 9.97777C164.618 9.5394 164.216 9.19632 163.699 8.96761C163.182 8.73889 162.512 8.62453 161.727 8.62453H158.952V24.6728H154.836ZM165.364 15.8482L170.207 24.6728H165.651L160.904 15.8482H165.345H165.364Z" fill="#231F20"/>
<path d="M183.474 5.12708H185.254V19.1169C185.254 20.3749 185.024 21.4422 184.565 22.2808C184.106 23.1195 183.493 23.7484 182.708 24.1677C181.924 24.5871 181.005 24.7967 179.971 24.7967C178.937 24.7967 178.057 24.6061 177.272 24.244C176.487 23.8819 175.856 23.3482 175.396 22.662C174.937 21.9949 174.707 21.1944 174.707 20.2796H176.468C176.468 20.8514 176.621 21.366 176.928 21.8043C177.234 22.2427 177.655 22.5858 178.172 22.8336C178.708 23.0813 179.301 23.1957 179.971 23.1957C180.641 23.1957 181.273 23.0432 181.79 22.7573C182.306 22.4714 182.727 22.014 183.015 21.4231C183.321 20.8132 183.455 20.0508 183.455 19.1169V5.12708H183.474Z" fill="#231F20"/>
<path d="M208.779 5.12708H210.56V17.9733C210.56 19.2885 210.253 20.4702 209.622 21.5184C208.99 22.5477 208.129 23.3672 207.037 23.9771C205.946 24.5871 204.645 24.873 203.171 24.873C201.697 24.873 200.434 24.568 199.323 23.9771C198.213 23.3672 197.352 22.5667 196.72 21.5184C196.088 20.4892 195.782 19.3075 195.782 17.9924V5.12708H197.562V17.859C197.562 18.8882 197.792 19.8031 198.251 20.6036C198.711 21.4041 199.362 22.0331 200.204 22.5096C201.046 22.967 202.022 23.1957 203.152 23.1957C204.281 23.1957 205.257 22.967 206.119 22.5096C206.961 22.0521 207.612 21.4231 208.071 20.6036C208.53 19.784 208.76 18.8882 208.76 17.859V5.12708H208.779Z" fill="#231F20"/>
<path d="M221.107 5.12708H223.155L230.218 22.0331H230.39L237.454 5.12708H239.502V24.5299H237.817V8.86278H237.664L231.079 24.5299H229.452L222.868 8.86278H222.715V24.5299H221.03V5.12708H221.107Z" fill="#231F20"/>
<path d="M250.068 24.5299V5.12708H256.366C257.744 5.12708 258.912 5.39391 259.83 5.92758C260.749 6.46126 261.457 7.16647 261.936 8.08133C262.414 8.9962 262.644 10.0064 262.644 11.1309C262.644 12.2554 262.414 13.2846 261.936 14.1804C261.457 15.0763 260.768 15.8005 259.849 16.3342C258.931 16.8679 257.763 17.1347 256.404 17.1347H251.465V15.5527H256.366C257.38 15.5527 258.242 15.3622 258.912 14.981C259.582 14.5998 260.079 14.0661 260.424 13.4181C260.749 12.751 260.921 12.0076 260.921 11.15C260.921 10.2923 260.749 9.54893 260.424 8.88184C260.098 8.21475 259.582 7.70014 258.912 7.31894C258.242 6.93775 257.38 6.74715 256.347 6.74715H251.887V24.568H250.106L250.068 24.5299Z" fill="#231F20"/>
</svg>