<svg xmlns="http://www.w3.org/2000/svg" xmlns:xlink="http://www.w3.org/1999/xlink" id="Layer_1" x="0px" y="0px" viewBox="0 0 697.09 135.58" xml:space="preserve">
<g>
	<g>
		<path fill="#F9519E" d="M118.51,42.14c0,8.48-2.45,15.57-7.35,21.29c-4.9,5.72-12.71,9.55-23.43,11.49l35.53,40.74    c2.45,2.86,5.36,5.03,8.73,6.51c3.37,1.48,6.79,2.22,10.26,2.22v6.13h-36.3L67.97,83.95c-2.55-3.06-4.77-5.13-6.66-6.2    c-1.89-1.07-3.65-1.61-5.28-1.61v30.02c0,3.78,0.25,6.87,0.77,9.26c0.51,2.4,1.53,4.27,3.06,5.59c1.53,1.33,3.75,2.22,6.66,2.68    c2.91,0.46,6.82,0.69,11.72,0.69v6.13h-60.8v-6.13c3.37,0,6.1-0.23,8.19-0.69c2.09-0.46,3.73-1.33,4.9-2.6    c1.17-1.28,1.96-3.06,2.37-5.36c0.41-2.3,0.61-5.23,0.61-8.81V36.16c0-3.57-0.15-6.46-0.46-8.65s-0.97-3.93-1.99-5.21    c-1.02-1.28-2.48-2.14-4.37-2.6c-1.89-0.46-4.42-0.79-7.58-1v-6.13H72.1c14.8,0,26.24,2.6,34.31,7.81    C114.48,25.6,118.51,32.85,118.51,42.14z M56.02,66.95h9.95c9.6,0,16.77-1.86,21.52-5.59c4.75-3.73,7.12-9.88,7.12-18.46    c0-6.53-1.99-11.79-5.97-15.77c-3.98-3.98-9.5-5.97-16.54-5.97H58.78c-1.84,0-2.76,0.87-2.76,2.6V66.95z"></path>
		<path fill="#F9519E" d="M207.95,74.45c0-4.08-0.1-7.33-0.31-9.73c-0.21-2.4-0.77-4.24-1.68-5.51c-0.92-1.28-2.27-2.14-4.06-2.6    c-1.79-0.46-4.21-0.84-7.28-1.15v-6.13h34.61v46.41c0,6.23,0.08,11.1,0.23,14.63c0.15,3.52,0.43,6.15,0.84,7.89    c0.31,1.33,0.66,2.37,1.07,3.14c0.41,0.77,1.07,1.38,1.99,1.84c0.92,0.46,2.17,0.77,3.75,0.92c1.58,0.15,3.65,0.23,6.2,0.23v5.97    l-30.48,1.84l-1.68-13.63h-0.61c-2.66,4.29-6.38,7.61-11.18,9.95c-4.8,2.35-10.16,3.52-16.08,3.52    c-10.93,0-19.25-3.88-24.96-11.64c-4.39-5.92-6.59-14.34-6.59-25.27V74.45c0-4.18-0.1-7.48-0.31-9.88    c-0.21-2.4-0.74-4.21-1.61-5.44c-0.87-1.22-2.17-2.07-3.91-2.53c-1.74-0.46-4.13-0.84-7.2-1.15v-6.13h34.31v43.34    c0,10.31,1.28,17.79,3.83,22.44c2.55,4.65,6.64,6.97,12.25,6.97c6.02,0,10.67-2.76,13.94-8.27c3.27-5.31,4.9-13.12,4.9-23.43    V74.45z"></path>
		<path fill="#F9519E" d="M327.72,117.8c-3.88,4.29-8.71,7.61-14.47,9.95c-5.77,2.35-12.02,3.52-18.76,3.52c-6.23,0-11.9-1-17-2.99    c-5.11-1.99-9.5-4.77-13.17-8.35c-3.68-3.57-6.51-7.89-8.5-12.94c-1.99-5.05-2.99-10.64-2.99-16.77c0-6.33,1.07-12.1,3.22-17.31    c2.14-5.21,5.16-9.67,9.04-13.4c3.88-3.73,8.52-6.61,13.94-8.65c5.41-2.04,11.38-3.06,17.92-3.06c4.59,0,8.86,0.46,12.79,1.38    c3.93,0.92,7.3,2.2,10.11,3.83c2.81,1.63,5.03,3.55,6.66,5.74c1.63,2.2,2.45,4.57,2.45,7.12c0,2.96-0.84,5.31-2.53,7.04    c-1.69,1.74-3.96,2.6-6.82,2.6c-2.35,0-4.42-0.61-6.2-1.84c-1.79-1.22-3.55-3.22-5.28-5.97c-1.53-2.45-2.83-4.39-3.91-5.82    c-1.07-1.43-2.07-2.53-2.99-3.29c-0.92-0.76-1.84-1.27-2.76-1.53c-0.92-0.26-2.04-0.38-3.37-0.38c-5.92,0-10.52,2.76-13.78,8.27    c-3.27,5.51-4.9,13.22-4.9,23.13c0,10.62,1.96,18.79,5.9,24.51c3.93,5.72,9.57,8.58,16.92,8.58c4.19,0,8.37-0.79,12.56-2.37    c4.19-1.58,8.17-3.85,11.95-6.82L327.72,117.8z"></path>
		<path fill="#F9519E" d="M389.6,124.38c3.27,0,5.56-0.13,6.89-0.38c1.33-0.26,1.99-0.79,1.99-1.61c0-0.61-0.69-2.12-2.07-4.52    c-1.38-2.4-3.14-5.18-5.29-8.35l-11.64-17.46l-7.66,7.35v5.97c0,3.98,0.15,7.2,0.46,9.65c0.31,2.45,0.84,4.36,1.61,5.74    c0.77,1.38,1.84,2.32,3.22,2.83c1.38,0.51,3.14,0.77,5.29,0.77v6.13h-45.18v-6.13c2.86-0.1,5.16-0.41,6.89-0.92    c1.74-0.51,3.11-1.4,4.14-2.68c1.02-1.27,1.71-3.06,2.07-5.36c0.36-2.3,0.54-5.28,0.54-8.96V41.53c0-6.23-0.1-11.13-0.31-14.7    c-0.21-3.57-0.74-6.25-1.61-8.04c-0.87-1.79-2.2-2.88-3.98-3.29c-1.79-0.41-4.21-0.61-7.28-0.61V9.21l34.15-5.82v85.15l14.7-13.94    c5.31-5,9.09-8.75,11.33-11.26c2.24-2.5,3.37-4.31,3.37-5.44c0-0.92-0.95-1.56-2.83-1.91c-1.89-0.36-5.39-0.54-10.49-0.54v-6.13    h41.81v6.13c-3.88,0-7.3,0.67-10.26,1.99c-2.96,1.33-6.18,3.62-9.65,6.89l-14.86,13.94l26.5,37.52c2.35,3.27,4.65,5.51,6.89,6.74    c2.24,1.22,5.21,1.84,8.88,1.84v6.13H389.6V124.38z"></path>
		<path fill="#F9519E" d="M509.21,74.45c0-4.08-0.1-7.33-0.31-9.73c-0.21-2.4-0.77-4.24-1.69-5.51c-0.92-1.28-2.27-2.14-4.06-2.6    c-1.79-0.46-4.21-0.84-7.27-1.15v-6.13h34.61v46.41c0,6.23,0.08,11.1,0.23,14.63c0.15,3.52,0.43,6.15,0.84,7.89    c0.31,1.33,0.66,2.37,1.07,3.14c0.41,0.77,1.07,1.38,1.99,1.84c0.92,0.46,2.17,0.77,3.75,0.92c1.58,0.15,3.65,0.23,6.2,0.23v5.97    l-30.48,1.84l-1.68-13.63h-0.61c-2.66,4.29-6.38,7.61-11.18,9.95c-4.8,2.35-10.16,3.52-16.08,3.52    c-10.93,0-19.25-3.88-24.97-11.64c-4.39-5.92-6.59-14.34-6.59-25.27V74.45c0-4.18-0.1-7.48-0.31-9.88    c-0.21-2.4-0.74-4.21-1.61-5.44c-0.87-1.22-2.17-2.07-3.91-2.53c-1.74-0.46-4.13-0.84-7.2-1.15v-6.13h34.31v43.34    c0,10.31,1.27,17.79,3.83,22.44c2.55,4.65,6.64,6.97,12.25,6.97c6.02,0,10.67-2.76,13.94-8.27c3.27-5.31,4.9-13.12,4.9-23.43    V74.45z"></path>
		<path fill="#F9519E" d="M561.13,130.51h-4.75v-27.87h6.43c1.74,7.35,4.23,12.71,7.5,16.08c3.27,3.37,7.51,5.05,12.71,5.05    c3.78,0,6.71-0.79,8.81-2.37c2.09-1.58,3.14-3.75,3.14-6.51c0-2.86-1.28-5.64-3.83-8.35c-2.55-2.7-6.69-5.59-12.4-8.65    c-7.76-4.18-13.33-8.35-16.69-12.48c-3.37-4.13-5.05-8.81-5.05-14.01c0-3.37,0.64-6.51,1.91-9.42c1.27-2.91,3.01-5.44,5.21-7.58    c2.19-2.14,4.82-3.8,7.89-4.98c3.06-1.17,6.38-1.76,9.95-1.76c3.16,0,6.3,0.46,9.42,1.38c3.11,0.92,5.84,2.2,8.19,3.83l2.76-3.68    h3.98v23.13h-5.97c-2.35-5.82-4.77-10-7.28-12.56c-2.5-2.55-5.54-3.83-9.11-3.83c-2.86,0-5.13,0.77-6.82,2.3    c-1.68,1.53-2.53,3.58-2.53,6.13c0,2.86,1.25,5.57,3.75,8.12c2.5,2.55,6.66,5.36,12.48,8.42c4.08,2.25,7.61,4.44,10.57,6.59    c2.96,2.14,5.36,4.31,7.2,6.51c1.84,2.2,3.19,4.5,4.06,6.89c0.87,2.4,1.3,4.98,1.3,7.73c0,3.58-0.67,6.79-1.99,9.65    c-1.33,2.86-3.22,5.31-5.67,7.35c-2.45,2.04-5.39,3.63-8.81,4.75c-3.42,1.12-7.22,1.69-11.41,1.69c-4.39,0-8.47-0.59-12.25-1.76    c-3.78-1.17-6.89-2.88-9.34-5.13L561.13,130.51z"></path>
	</g>
	<circle fill="#31BEAF" cx="657.56" cy="108.41" r="22.1"></circle>
</g>
</svg>